<?xml version="1.0" standalone="no"?>
<!DOCTYPE svg PUBLIC "-//W3C//DTD SVG 20010904//EN"
 "http://www.w3.org/TR/2001/REC-SVG-20010904/DTD/svg10.dtd">
<svg version="1.0" xmlns="http://www.w3.org/2000/svg"
 width="600.000000pt" height="600.000000pt" viewBox="0 0 500.000000 500.000000"
 preserveAspectRatio="xMidYMid meet">

<g transform="translate(0.000000,500.000000) scale(0.100000,-0.100000)"
fill="#fff" stroke="none">
<path d="M2276 4469 c-590 -62 -1143 -409 -1471 -923 -156 -245 -267 -577
-295 -886 -14 -154 1 -397 35 -565 157 -779 770 -1395 1545 -1554 276 -57 612
-51 875 15 190 48 414 142 575 241 312 194 581 489 740 816 138 285 201 554
201 862 0 371 -85 698 -263 1009 -118 206 -333 450 -524 594 -404 304 -913
444 -1418 391z m568 -1244 c139 -36 236 -159 236 -299 l0 -54 158 70 c86 38
170 74 187 79 39 12 89 -5 115 -38 19 -25 20 -40 20 -487 0 -439 -1 -463 -20
-493 -22 -37 -75 -56 -118 -43 -15 5 -97 40 -182 78 l-155 70 -6 -67 c-11
-124 -68 -210 -177 -263 l-67 -33 -581 0 -581 0 -69 35 c-50 25 -79 49 -106
85 -69 91 -68 83 -68 627 0 457 1 491 19 538 38 99 113 168 213 194 81 22
1099 23 1182 1z"/>
<path d="M1860 2810 l0 -100 210 0 210 0 0 100 0 100 -210 0 -210 0 0 -100z"/>
</g>
</svg>
